<svg xmlns="http://www.w3.org/2000/svg" xmlns:xlink="http://www.w3.org/1999/xlink" width="1080" zoomAndPan="magnify" viewBox="0 0 810 809.999993" height="1080" preserveAspectRatio="xMidYMid meet" version="1.0"><defs><g/><clipPath id="22c98f91e2"><path d="M 174 255 L 529 255 L 529 450 L 174 450 Z M 174 255 " clip-rule="nonzero"/></clipPath><clipPath id="a3697b2613"><path d="M 181.046875 249.773438 L 532.03125 272.996094 L 519.257812 466.074219 L 168.273438 442.851562 Z M 181.046875 249.773438 " clip-rule="nonzero"/></clipPath><clipPath id="c410d0f675"><path d="M 532.347656 273.015625 L 181.363281 249.796875 L 168.589844 442.875 L 519.574219 466.09375 Z M 532.347656 273.015625 " clip-rule="nonzero"/></clipPath></defs><g fill="#ffffff" fill-opacity="1"><g transform="translate(328.582472, 378.113526)"><g><path d="M 25.960938 -56.042969 L 67.71875 -106.457031 L 116.207031 -19.09375 C 126.511719 -2.746094 122.527344 0 122.527344 0 L 150.6875 0 C 150.6875 0 143.269531 -2.746094 132.96875 -19.09375 L 77.335938 -117.996094 L 127.609375 -178.707031 C 138.324219 -191.621094 152.746094 -196.839844 152.746094 -196.839844 L 129.945312 -196.839844 C 129.945312 -196.839844 132.691406 -188.734375 124.3125 -178.570312 L 25.960938 -59.753906 L 25.960938 -178.707031 C 25.960938 -195.054688 31.59375 -196.839844 31.59375 -196.839844 L 3.433594 -196.839844 C 3.433594 -196.839844 9.203125 -194.917969 9.203125 -178.570312 L 9.203125 -19.09375 C 9.203125 -2.746094 3.433594 0 3.433594 0 L 31.59375 0 C 31.59375 0 25.960938 -2.746094 25.960938 -19.09375 Z M 25.960938 -56.042969 "/></g></g></g><g fill="#ffffff" fill-opacity="1"><g transform="translate(319.51216, 570.113516)"><g><path d="M 141.347656 -11.8125 L 170.878906 -0.136719 C 170.878906 -0.136719 165.246094 -2.882812 165.246094 -19.230469 L 165.246094 -66.070312 C 165.246094 -82.417969 170.878906 -84.203125 170.878906 -84.203125 L 142.71875 -84.203125 C 142.71875 -84.203125 148.488281 -82.28125 148.488281 -65.933594 L 148.488281 -37.636719 C 147.664062 -18.957031 123.214844 -6.457031 90.109375 -6.457031 C 51.921875 -6.457031 20.878906 -35.300781 20.878906 -98.761719 C 20.878906 -162.085938 61.125 -191.621094 90.109375 -191.621094 C 125.273438 -191.621094 139.421875 -182.417969 157.28125 -153.296875 L 166.621094 -178.570312 C 151.234375 -174.449219 143.679688 -196.976562 95.878906 -196.976562 C 41.757812 -196.976562 3.433594 -160.851562 3.433594 -98.351562 C 3.433594 -35.988281 42.308594 -0.136719 90.109375 -0.136719 C 110.164062 -0.136719 127.472656 -3.847656 141.347656 -11.8125 Z M 141.347656 -11.8125 "/></g></g></g><g clip-path="url(#22c98f91e2)"><g clip-path="url(#a3697b2613)"><g clip-path="url(#c410d0f675)"><path fill="#ffffff" d="M 464.28125 375.417969 C 466.382812 376.183594 468.554688 376.804688 470.777344 377.273438 C 472.96875 377.734375 475.210938 378.046875 477.488281 378.195312 C 490.636719 379.066406 502.894531 374.527344 512.082031 366.480469 C 521.269531 358.4375 527.386719 346.894531 528.253906 333.746094 C 529.125 320.605469 524.582031 308.351562 516.535156 299.167969 C 508.488281 289.984375 496.933594 283.867188 483.789062 283 C 476.480469 282.515625 469.445312 283.707031 463.054688 286.242188 C 456.421875 288.875 450.488281 292.960938 445.675781 298.128906 C 431.125 313.558594 419.015625 329.957031 406.914062 346.347656 C 381.984375 380.113281 357.082031 413.832031 311.152344 438.425781 C 306.976562 440.355469 302.640625 441.984375 298.175781 443.292969 C 287.832031 446.324219 276.785156 447.625 265.394531 446.871094 C 239.386719 445.148438 216.542969 433.054688 200.628906 414.894531 C 184.714844 396.730469 175.730469 372.496094 177.453125 346.503906 C 179.171875 320.507812 191.269531 297.671875 209.4375 281.765625 C 226.625 266.714844 249.238281 257.871094 273.644531 258.414062 C 271.640625 259.671875 270.246094 261.839844 270.078125 264.382812 C 269.796875 268.59375 272.984375 272.230469 277.195312 272.507812 C 281.410156 272.789062 285.046875 269.601562 285.324219 265.390625 C 285.566406 261.726562 283.183594 258.496094 279.785156 257.535156 L 279.882812 256.339844 L 278.015625 256.195312 C 251.347656 254.429688 226.484375 263.640625 207.855469 279.953125 C 189.222656 296.269531 176.8125 319.6875 175.050781 346.347656 C 173.285156 373.003906 182.5 397.859375 198.820312 416.484375 C 215.140625 435.109375 238.570312 447.515625 265.242188 449.277344 C 276.910156 450.050781 288.242188 448.71875 298.859375 445.609375 C 309.859375 442.382812 320.09375 437.25 329.136719 430.5625 C 365.125 406.996094 386.976562 377.410156 408.851562 347.785156 C 420.921875 331.441406 432.996094 315.082031 447.433594 299.777344 L 446.558594 298.957031 L 447.4375 299.773438 C 452.003906 294.867188 457.636719 290.988281 463.9375 288.488281 C 470 286.082031 476.683594 284.949219 483.632812 285.410156 C 496.121094 286.238281 507.089844 292.042969 514.730469 300.765625 C 522.371094 309.484375 526.683594 321.117188 525.859375 333.601562 C 525.03125 346.082031 519.222656 357.046875 510.5 364.683594 C 501.777344 372.320312 490.140625 376.632812 477.652344 375.808594 C 475.460938 375.660156 473.332031 375.367188 471.269531 374.933594 C 469.148438 374.488281 467.089844 373.898438 465.109375 373.175781 L 464.289062 375.433594 Z M 464.28125 375.417969 " fill-opacity="1" fill-rule="nonzero"/></g></g></g><g fill="#ffffff" fill-opacity="1"><g transform="translate(233.895494, 639.762299)"><g><path d="M 3.496094 0 L 3.496094 -7.6875 L 9.011719 0 L 11.183594 0 L 5.15625 -8.195312 L 11.183594 -16.386719 L 9.011719 -16.386719 L 3.496094 -8.675781 L 3.496094 -16.386719 L 1.808594 -16.386719 L 1.808594 0 Z M 3.496094 0 "/></g></g></g><g fill="#ffffff" fill-opacity="1"><g transform="translate(262.477305, 639.762299)"><g><path d="M 3.496094 0 L 3.496094 -7.324219 L 10.941406 -7.324219 L 10.941406 0 L 12.628906 0 L 12.628906 -16.386719 L 10.941406 -16.386719 L 10.941406 -9.011719 L 3.496094 -9.011719 L 3.496094 -16.386719 L 1.808594 -16.386719 L 1.808594 0 Z M 3.496094 0 "/></g></g></g><g fill="#ffffff" fill-opacity="1"><g transform="translate(294.070046, 639.762299)"><g><path d="M 13.664062 -5.421875 L 13.664062 -16.386719 L 11.976562 -16.386719 L 11.976562 -5.179688 C 11.976562 -4.507812 11.855469 -3.953125 11.617188 -3.496094 C 10.917969 -2.144531 9.566406 -1.46875 7.566406 -1.46875 C 6.265625 -1.46875 5.230469 -1.757812 4.457031 -2.335938 C 3.566406 -2.988281 3.132812 -3.929688 3.132812 -5.179688 L 3.132812 -16.386719 L 1.445312 -16.386719 L 1.445312 -5.421875 C 1.445312 -3.640625 2.023438 -2.242188 3.179688 -1.230469 C 4.265625 -0.265625 5.734375 0.21875 7.566406 0.21875 C 9.375 0.21875 10.820312 -0.265625 11.929688 -1.230469 C 13.085938 -2.242188 13.664062 -3.640625 13.664062 -5.421875 Z M 13.664062 -5.421875 "/></g></g></g><g fill="#ffffff" fill-opacity="1"><g transform="translate(326.337231, 639.762299)"><g><path d="M 6.339844 -7.710938 C 8.457031 -7.207031 9.90625 -6.652344 10.675781 -6.023438 C 11.207031 -5.589844 11.472656 -5.035156 11.472656 -4.363281 C 11.472656 -3.6875 11.328125 -3.132812 11.035156 -2.746094 C 10.3125 -1.734375 9.011719 -1.230469 7.179688 -1.230469 C 4.625 -1.230469 3.179688 -2.097656 2.867188 -3.832031 L 0.890625 -3.832031 C 1.46875 -1.058594 3.566406 0.3125 7.179688 0.3125 C 8.796875 0.3125 10.144531 -0.0234375 11.230469 -0.746094 C 12.53125 -1.589844 13.207031 -2.84375 13.207031 -4.480469 C 13.207031 -5.832031 12.675781 -6.867188 11.617188 -7.589844 C 10.867188 -8.121094 9.664062 -8.601562 8 -9.035156 C 6.3125 -9.472656 5.230469 -9.832031 4.722656 -10.097656 C 3.613281 -10.652344 3.058594 -11.421875 3.085938 -12.433594 C 3.085938 -12.964844 3.179688 -13.421875 3.421875 -13.761719 C 4.046875 -14.699219 5.15625 -15.183594 6.746094 -15.183594 C 8.988281 -15.183594 10.265625 -14.460938 10.601562 -13.0625 L 12.433594 -13.0625 C 11.832031 -15.421875 9.929688 -16.628906 6.746094 -16.628906 C 5.300781 -16.628906 4.023438 -16.242188 2.964844 -15.472656 C 1.878906 -14.699219 1.324219 -13.566406 1.324219 -12.023438 C 1.324219 -9.929688 3.011719 -8.484375 6.339844 -7.710938 Z M 6.339844 -7.710938 "/></g></g></g><g fill="#ffffff" fill-opacity="1"><g transform="translate(357.327775, 639.762299)"><g><path d="M 3.496094 0 L 3.496094 -7.324219 L 10.941406 -7.324219 L 10.941406 0 L 12.628906 0 L 12.628906 -16.386719 L 10.941406 -16.386719 L 10.941406 -9.011719 L 3.496094 -9.011719 L 3.496094 -16.386719 L 1.808594 -16.386719 L 1.808594 0 Z M 3.496094 0 "/></g></g></g><g fill="#ffffff" fill-opacity="1"><g transform="translate(388.920516, 639.762299)"><g><path d="M 3.496094 0 L 3.496094 -16.386719 L 1.808594 -16.386719 L 1.808594 0 Z M 3.496094 0 "/></g></g></g><g fill="#ffffff" fill-opacity="1"><g transform="translate(411.38415, 639.762299)"><g/></g></g><g fill="#ffffff" fill-opacity="1"><g transform="translate(435.05215, 639.762299)"><g><path d="M 17.976562 -7.664062 L 9.445312 -7.664062 L 9.445312 -6.191406 L 16.097656 -6.191406 C 15.589844 -4.773438 14.75 -3.613281 13.542969 -2.769531 C 12.339844 -1.902344 10.988281 -1.492188 9.519531 -1.492188 C 7.640625 -1.492188 6.046875 -2.144531 4.722656 -3.46875 C 3.421875 -4.796875 2.769531 -6.410156 2.769531 -8.265625 C 2.769531 -10.121094 3.421875 -11.710938 4.746094 -13.039062 C 6.046875 -14.339844 7.640625 -15.011719 9.519531 -15.011719 C 10.917969 -15.011719 12.195312 -14.605469 13.328125 -13.808594 C 14.484375 -13.011719 15.300781 -11.976562 15.832031 -10.652344 L 17.617188 -10.652344 C 17.0625 -12.457031 16.027344 -13.90625 14.53125 -15.011719 C 13.039062 -16.121094 11.300781 -16.699219 9.351562 -16.699219 C 8.289062 -16.699219 7.253906 -16.460938 6.242188 -16.027344 C 5.207031 -15.589844 4.3125 -14.988281 3.542969 -14.21875 C 2.769531 -13.445312 2.167969 -12.554688 1.734375 -11.542969 C 1.300781 -10.507812 1.085938 -9.398438 1.085938 -8.242188 C 1.085938 -7.085938 1.300781 -5.976562 1.734375 -4.964844 C 2.167969 -3.929688 2.769531 -3.035156 3.542969 -2.265625 C 4.3125 -1.492188 5.207031 -0.890625 6.242188 -0.457031 C 7.253906 -0.0234375 8.363281 0.191406 9.519531 0.191406 C 11.496094 0.191406 13.277344 -0.433594 14.867188 -1.710938 C 16.460938 -3.011719 17.449219 -4.652344 17.808594 -6.652344 Z M 17.976562 -7.664062 "/></g></g></g><g fill="#ffffff" fill-opacity="1"><g transform="translate(471.269656, 639.762299)"><g><path d="M 13.664062 -5.421875 L 13.664062 -16.386719 L 11.976562 -16.386719 L 11.976562 -5.179688 C 11.976562 -4.507812 11.855469 -3.953125 11.617188 -3.496094 C 10.917969 -2.144531 9.566406 -1.46875 7.566406 -1.46875 C 6.265625 -1.46875 5.230469 -1.757812 4.457031 -2.335938 C 3.566406 -2.988281 3.132812 -3.929688 3.132812 -5.179688 L 3.132812 -16.386719 L 1.445312 -16.386719 L 1.445312 -5.421875 C 1.445312 -3.640625 2.023438 -2.242188 3.179688 -1.230469 C 4.265625 -0.265625 5.734375 0.21875 7.566406 0.21875 C 9.375 0.21875 10.820312 -0.265625 11.929688 -1.230469 C 13.085938 -2.242188 13.664062 -3.640625 13.664062 -5.421875 Z M 13.664062 -5.421875 "/></g></g></g><g fill="#ffffff" fill-opacity="1"><g transform="translate(503.536827, 639.762299)"><g><path d="M 3.496094 -8.121094 L 3.496094 -14.773438 L 7.300781 -14.773438 C 8.289062 -14.773438 9.085938 -14.460938 9.6875 -13.855469 C 10.265625 -13.230469 10.578125 -12.457031 10.578125 -11.496094 C 10.578125 -10.507812 10.265625 -9.710938 9.640625 -9.0625 C 9.011719 -8.433594 8.242188 -8.121094 7.300781 -8.121094 Z M 12.265625 -11.445312 C 12.265625 -12.894531 11.734375 -14.074219 10.722656 -15.011719 C 9.710938 -15.929688 8.507812 -16.386719 7.0625 -16.386719 L 1.808594 -16.386719 L 1.808594 0 L 3.496094 0 L 3.496094 -6.484375 L 7.0625 -6.484375 C 8.507812 -6.484375 9.734375 -6.941406 10.722656 -7.855469 C 11.734375 -8.820312 12.265625 -10 12.265625 -11.445312 Z M 12.265625 -11.445312 "/></g></g></g><g fill="#ffffff" fill-opacity="1"><g transform="translate(533.443442, 639.762299)"><g><path d="M 0.480469 -14.867188 L 4.457031 -14.867188 L 4.457031 -0.046875 L 6.144531 -0.046875 L 6.144531 -14.867188 L 10.121094 -14.867188 L 10.121094 -16.433594 L 0.480469 -16.433594 Z M 0.480469 -14.867188 "/></g></g></g><g fill="#ffffff" fill-opacity="1"><g transform="translate(561.206272, 639.762299)"><g><path d="M 4.457031 -6.023438 L 7.445312 -13.566406 L 10.410156 -6.023438 Z M 14.628906 0 L 7.445312 -17.519531 L 0.242188 0 L 2.074219 0 L 3.832031 -4.457031 L 11.035156 -4.457031 L 12.796875 0 Z M 14.628906 0 "/></g></g></g></svg>