<svg xmlns="http://www.w3.org/2000/svg" xmlns:xlink="http://www.w3.org/1999/xlink" width="1080" zoomAndPan="magnify" viewBox="0 0 810 809.999993" height="1080" preserveAspectRatio="xMidYMid meet" version="1.0"><defs><g/><clipPath id="25a71444a3"><path d="M 10 281 L 568 281 L 568 588 L 10 588 Z M 10 281 " clip-rule="nonzero"/></clipPath><clipPath id="7e1e0d171a"><path d="M 20.140625 271.914062 L 572.921875 308.484375 L 552.761719 613.207031 L -0.0195312 576.636719 Z M 20.140625 271.914062 " clip-rule="nonzero"/></clipPath><clipPath id="f13ab52711"><path d="M 573.335938 308.511719 L 20.554688 271.941406 L 0.394531 576.664062 L 553.175781 613.234375 Z M 573.335938 308.511719 " clip-rule="nonzero"/></clipPath></defs><g fill="#ffffff" fill-opacity="1"><g transform="translate(250.991138, 471.75363)"><g><path d="M 43.683594 -94.296875 L 113.945312 -179.121094 L 195.53125 -32.125 C 212.863281 -4.621094 206.160156 0 206.160156 0 L 253.542969 0 C 253.542969 0 241.0625 -4.621094 223.726562 -32.125 L 130.121094 -198.535156 L 214.714844 -300.691406 C 232.742188 -322.417969 257.007812 -331.199219 257.007812 -331.199219 L 218.640625 -331.199219 C 218.640625 -331.199219 223.265625 -317.5625 209.167969 -300.460938 L 43.683594 -100.539062 L 43.683594 -300.691406 C 43.683594 -328.195312 53.160156 -331.199219 53.160156 -331.199219 L 5.777344 -331.199219 C 5.777344 -331.199219 15.484375 -327.964844 15.484375 -300.460938 L 15.484375 -32.125 C 15.484375 -4.621094 5.777344 0 5.777344 0 L 53.160156 0 C 53.160156 0 43.683594 -4.621094 43.683594 -32.125 Z M 43.683594 -94.296875 "/></g></g></g><g fill="#ffffff" fill-opacity="1"><g transform="translate(518.40257, 471.75363)"><g><path d="M 237.824219 -19.875 L 287.515625 -0.230469 C 287.515625 -0.230469 278.039062 -4.855469 278.039062 -32.355469 L 278.039062 -111.171875 C 278.039062 -138.671875 287.515625 -141.679688 287.515625 -141.679688 L 240.136719 -141.679688 C 240.136719 -141.679688 249.84375 -138.441406 249.84375 -110.9375 L 249.84375 -63.328125 C 248.457031 -31.894531 207.316406 -10.863281 151.617188 -10.863281 C 87.363281 -10.863281 35.128906 -59.398438 35.128906 -166.175781 C 35.128906 -272.726562 102.851562 -322.417969 151.617188 -322.417969 C 210.785156 -322.417969 234.589844 -306.929688 264.636719 -257.933594 L 280.351562 -300.460938 C 254.464844 -293.527344 241.753906 -331.429688 161.324219 -331.429688 C 70.261719 -331.429688 5.777344 -270.644531 5.777344 -165.484375 C 5.777344 -60.554688 71.1875 -0.230469 151.617188 -0.230469 C 185.359375 -0.230469 214.480469 -6.472656 237.824219 -19.875 Z M 237.824219 -19.875 "/></g></g></g><g clip-path="url(#25a71444a3)"><g clip-path="url(#7e1e0d171a)"><g clip-path="url(#f13ab52711)"><path fill="#ffffff" d="M 466.113281 470.136719 C 469.417969 471.347656 472.839844 472.328125 476.339844 473.066406 C 479.792969 473.792969 483.324219 474.28125 486.914062 474.519531 C 507.617188 475.890625 526.925781 468.722656 541.394531 456.027344 C 555.867188 443.332031 565.503906 425.105469 566.875 404.359375 C 568.246094 383.617188 561.097656 364.277344 548.425781 349.789062 C 535.753906 335.296875 517.558594 325.648438 496.851562 324.277344 C 485.34375 323.515625 474.261719 325.398438 464.195312 329.398438 C 453.75 333.554688 444.402344 340.007812 436.824219 348.167969 C 413.902344 372.519531 394.828125 398.402344 375.769531 424.269531 C 336.492188 477.570312 297.269531 530.789062 224.925781 569.609375 C 218.347656 572.65625 211.519531 575.234375 204.488281 577.296875 C 188.195312 582.085938 170.796875 584.136719 152.855469 582.949219 C 111.898438 580.238281 75.917969 561.15625 50.863281 532.496094 C 25.800781 503.835938 11.660156 465.59375 14.371094 424.570312 C 17.085938 383.539062 36.148438 347.496094 64.761719 322.386719 C 91.832031 298.636719 127.453125 284.671875 165.894531 285.523438 C 162.734375 287.507812 160.535156 290.929688 160.269531 294.945312 C 159.832031 301.589844 164.851562 307.328125 171.484375 307.769531 C 178.117188 308.207031 183.847656 303.179688 184.289062 296.535156 C 184.671875 290.75 180.914062 285.648438 175.558594 284.136719 L 175.714844 282.25 L 172.773438 282.019531 C 130.773438 279.242188 91.617188 293.78125 62.269531 319.53125 C 32.921875 345.285156 13.375 382.246094 10.589844 424.324219 C 7.808594 466.394531 22.3125 505.613281 48.011719 535.007812 C 73.714844 564.402344 110.609375 583.972656 152.613281 586.75 C 170.996094 587.96875 188.84375 585.863281 205.5625 580.953125 C 222.890625 575.859375 239.003906 567.753906 253.253906 557.195312 C 309.9375 520 344.355469 473.296875 378.820312 426.539062 C 397.828125 400.742188 416.851562 374.925781 439.59375 350.765625 L 438.214844 349.472656 L 439.601562 350.761719 C 446.792969 343.015625 455.664062 336.894531 465.589844 332.945312 C 475.136719 329.144531 485.664062 327.359375 496.609375 328.082031 C 516.273438 329.386719 533.550781 338.546875 545.582031 352.308594 C 557.613281 366.070312 564.402344 384.429688 563.101562 404.128906 C 561.796875 423.828125 552.648438 441.132812 538.90625 453.1875 C 525.167969 465.246094 506.835938 472.050781 487.171875 470.75 C 483.71875 470.523438 480.363281 470.054688 477.117188 469.375 C 473.777344 468.675781 470.535156 467.738281 467.414062 466.601562 L 466.125 470.160156 Z M 466.113281 470.136719 " fill-opacity="1" fill-rule="nonzero"/></g></g></g></svg>